<mxfile host="65bd71144e">
    <diagram id="781DgUENsUYzOfUwWlOh" name="Page-1">
        <mxGraphModel dx="901" dy="819" grid="1" gridSize="10" guides="1" tooltips="1" connect="1" arrows="1" fold="1" page="1" pageScale="1" pageWidth="827" pageHeight="1169" math="0" shadow="0">
            <root>
                <mxCell id="0"/>
                <mxCell id="1" parent="0"/>
                <mxCell id="2" value="" style="rounded=1;whiteSpace=wrap;html=1;imageHeight=24;arcSize=4;fillColor=#f5f5f5;fontSize=31;strokeColor=#666666;fontColor=#333333;" parent="1" vertex="1">
                    <mxGeometry width="1000" height="520" as="geometry"/>
                </mxCell>
                <mxCell id="3" value="0" style="whiteSpace=wrap;html=1;aspect=fixed;rounded=1;fillColor=#60a917;fontColor=#ffffff;strokeColor=#2D7600;fontSize=31;" parent="1" vertex="1">
                    <mxGeometry x="40" y="40" width="80" height="80" as="geometry"/>
                </mxCell>
                <mxCell id="4" value="0" style="whiteSpace=wrap;html=1;aspect=fixed;rounded=1;fillColor=#60a917;fontColor=#ffffff;strokeColor=#2D7600;fontSize=31;" parent="1" vertex="1">
                    <mxGeometry x="160" y="40" width="80" height="80" as="geometry"/>
                </mxCell>
                <mxCell id="5" value="0" style="whiteSpace=wrap;html=1;aspect=fixed;rounded=1;fillColor=#60a917;fontColor=#ffffff;strokeColor=#2D7600;fontSize=31;" parent="1" vertex="1">
                    <mxGeometry x="280" y="40" width="80" height="80" as="geometry"/>
                </mxCell>
                <mxCell id="6" value="0" style="whiteSpace=wrap;html=1;aspect=fixed;rounded=1;fillColor=#60a917;fontColor=#ffffff;strokeColor=#2D7600;fontSize=31;" parent="1" vertex="1">
                    <mxGeometry x="400" y="40" width="80" height="80" as="geometry"/>
                </mxCell>
                <mxCell id="8" value="0" style="whiteSpace=wrap;html=1;aspect=fixed;rounded=1;fillColor=#60a917;fontColor=#ffffff;strokeColor=#2D7600;fontSize=31;" parent="1" vertex="1">
                    <mxGeometry x="520" y="40" width="80" height="80" as="geometry"/>
                </mxCell>
                <mxCell id="9" value="1" style="whiteSpace=wrap;html=1;aspect=fixed;rounded=1;fillColor=#1ba1e2;fontColor=#ffffff;strokeColor=#006EAF;fontSize=31;" parent="1" vertex="1">
                    <mxGeometry x="640" y="40" width="80" height="80" as="geometry"/>
                </mxCell>
                <mxCell id="10" value="1" style="whiteSpace=wrap;html=1;aspect=fixed;rounded=1;fillColor=#1ba1e2;fontColor=#ffffff;strokeColor=#006EAF;fontSize=31;" parent="1" vertex="1">
                    <mxGeometry x="760" y="40" width="80" height="80" as="geometry"/>
                </mxCell>
                <mxCell id="11" value="1" style="whiteSpace=wrap;html=1;aspect=fixed;rounded=1;fillColor=#1ba1e2;fontColor=#ffffff;strokeColor=#006EAF;fontSize=31;" parent="1" vertex="1">
                    <mxGeometry x="880" y="40" width="80" height="80" as="geometry"/>
                </mxCell>
                <mxCell id="12" value="1" style="whiteSpace=wrap;html=1;aspect=fixed;rounded=1;fillColor=#1ba1e2;fontColor=#ffffff;strokeColor=#006EAF;fontSize=31;" parent="1" vertex="1">
                    <mxGeometry x="40" y="160" width="80" height="80" as="geometry"/>
                </mxCell>
                <mxCell id="13" value="1" style="whiteSpace=wrap;html=1;aspect=fixed;rounded=1;fillColor=#1ba1e2;fontColor=#ffffff;strokeColor=#006EAF;fontSize=31;" parent="1" vertex="1">
                    <mxGeometry x="160" y="160" width="80" height="80" as="geometry"/>
                </mxCell>
                <mxCell id="14" value="" style="whiteSpace=wrap;html=1;aspect=fixed;rounded=1;fontSize=31;" parent="1" vertex="1">
                    <mxGeometry x="280" y="160" width="80" height="80" as="geometry"/>
                </mxCell>
                <mxCell id="15" value="" style="whiteSpace=wrap;html=1;aspect=fixed;rounded=1;fontSize=31;" parent="1" vertex="1">
                    <mxGeometry x="400" y="160" width="80" height="80" as="geometry"/>
                </mxCell>
                <mxCell id="16" value="" style="whiteSpace=wrap;html=1;aspect=fixed;rounded=1;fontSize=31;" parent="1" vertex="1">
                    <mxGeometry x="520" y="160" width="80" height="80" as="geometry"/>
                </mxCell>
                <mxCell id="17" value="2" style="whiteSpace=wrap;html=1;aspect=fixed;rounded=1;fillColor=#d80073;fontColor=#ffffff;strokeColor=#A50040;fontSize=31;" parent="1" vertex="1">
                    <mxGeometry x="640" y="160" width="80" height="80" as="geometry"/>
                </mxCell>
                <mxCell id="18" value="2" style="whiteSpace=wrap;html=1;aspect=fixed;rounded=1;fillColor=#d80073;fontColor=#ffffff;strokeColor=#A50040;fontSize=31;" parent="1" vertex="1">
                    <mxGeometry x="760" y="160" width="80" height="80" as="geometry"/>
                </mxCell>
                <mxCell id="19" value="3" style="whiteSpace=wrap;html=1;aspect=fixed;rounded=1;fillColor=#6a00ff;fontColor=#ffffff;strokeColor=#3700CC;fontSize=31;" parent="1" vertex="1">
                    <mxGeometry x="880" y="160" width="80" height="80" as="geometry"/>
                </mxCell>
                <mxCell id="20" value="3" style="whiteSpace=wrap;html=1;aspect=fixed;rounded=1;fillColor=#6a00ff;fontColor=#ffffff;strokeColor=#3700CC;fontSize=31;" parent="1" vertex="1">
                    <mxGeometry x="40" y="280" width="80" height="80" as="geometry"/>
                </mxCell>
                <mxCell id="21" value="3" style="whiteSpace=wrap;html=1;aspect=fixed;rounded=1;fillColor=#6a00ff;fontColor=#ffffff;strokeColor=#3700CC;fontSize=31;" parent="1" vertex="1">
                    <mxGeometry x="160" y="280" width="80" height="80" as="geometry"/>
                </mxCell>
                <mxCell id="22" value="3" style="whiteSpace=wrap;html=1;aspect=fixed;rounded=1;fillColor=#6a00ff;fontColor=#ffffff;strokeColor=#3700CC;fontSize=31;" parent="1" vertex="1">
                    <mxGeometry x="280" y="280" width="80" height="80" as="geometry"/>
                </mxCell>
                <mxCell id="23" value="3" style="whiteSpace=wrap;html=1;aspect=fixed;rounded=1;fillColor=#6a00ff;fontColor=#ffffff;strokeColor=#3700CC;fontSize=31;" parent="1" vertex="1">
                    <mxGeometry x="400" y="280" width="80" height="80" as="geometry"/>
                </mxCell>
                <mxCell id="24" value="4" style="whiteSpace=wrap;html=1;aspect=fixed;rounded=1;fillColor=#e3c800;fontColor=#000000;strokeColor=#B09500;fontSize=31;" parent="1" vertex="1">
                    <mxGeometry x="520" y="280" width="80" height="80" as="geometry"/>
                </mxCell>
                <mxCell id="25" value="4" style="whiteSpace=wrap;html=1;aspect=fixed;rounded=1;fillColor=#e3c800;fontColor=#000000;strokeColor=#B09500;fontSize=31;" parent="1" vertex="1">
                    <mxGeometry x="640" y="280" width="80" height="80" as="geometry"/>
                </mxCell>
                <mxCell id="26" value="4" style="whiteSpace=wrap;html=1;aspect=fixed;rounded=1;fillColor=#e3c800;fontColor=#000000;strokeColor=#B09500;fontSize=31;" parent="1" vertex="1">
                    <mxGeometry x="760" y="280" width="80" height="80" as="geometry"/>
                </mxCell>
                <mxCell id="27" value="4" style="whiteSpace=wrap;html=1;aspect=fixed;rounded=1;fillColor=#e3c800;fontColor=#000000;strokeColor=#B09500;fontSize=31;" parent="1" vertex="1">
                    <mxGeometry x="880" y="280" width="80" height="80" as="geometry"/>
                </mxCell>
                <mxCell id="28" value="4" style="whiteSpace=wrap;html=1;aspect=fixed;rounded=1;fillColor=#e3c800;fontColor=#000000;strokeColor=#B09500;fontSize=31;" parent="1" vertex="1">
                    <mxGeometry x="40" y="400" width="80" height="80" as="geometry"/>
                </mxCell>
                <mxCell id="29" value="5" style="whiteSpace=wrap;html=1;aspect=fixed;rounded=1;fillColor=#a0522d;fontColor=#ffffff;strokeColor=#6D1F00;fontSize=31;" parent="1" vertex="1">
                    <mxGeometry x="160" y="400" width="80" height="80" as="geometry"/>
                </mxCell>
                <mxCell id="30" value="5" style="whiteSpace=wrap;html=1;aspect=fixed;rounded=1;fillColor=#a0522d;fontColor=#ffffff;strokeColor=#6D1F00;fontSize=31;" parent="1" vertex="1">
                    <mxGeometry x="280" y="400" width="80" height="80" as="geometry"/>
                </mxCell>
                <mxCell id="31" value="5" style="whiteSpace=wrap;html=1;aspect=fixed;rounded=1;fillColor=#a0522d;fontColor=#ffffff;strokeColor=#6D1F00;fontSize=31;" parent="1" vertex="1">
                    <mxGeometry x="400" y="400" width="80" height="80" as="geometry"/>
                </mxCell>
                <mxCell id="32" value="5" style="whiteSpace=wrap;html=1;aspect=fixed;rounded=1;fillColor=#a0522d;fontColor=#ffffff;strokeColor=#6D1F00;fontSize=31;" parent="1" vertex="1">
                    <mxGeometry x="520" y="400" width="80" height="80" as="geometry"/>
                </mxCell>
                <mxCell id="33" value="5" style="whiteSpace=wrap;html=1;aspect=fixed;rounded=1;fillColor=#a0522d;fontColor=#ffffff;strokeColor=#6D1F00;fontSize=31;" parent="1" vertex="1">
                    <mxGeometry x="640" y="400" width="80" height="80" as="geometry"/>
                </mxCell>
                <mxCell id="34" value="6" style="whiteSpace=wrap;html=1;aspect=fixed;rounded=1;fillColor=#e51400;fontColor=#ffffff;strokeColor=#B20000;fontSize=31;" parent="1" vertex="1">
                    <mxGeometry x="760" y="400" width="80" height="80" as="geometry"/>
                </mxCell>
                <mxCell id="35" value="6" style="whiteSpace=wrap;html=1;aspect=fixed;rounded=1;fillColor=#e51400;fontColor=#ffffff;strokeColor=#B20000;fontSize=31;" parent="1" vertex="1">
                    <mxGeometry x="880" y="400" width="80" height="80" as="geometry"/>
                </mxCell>
                <mxCell id="74" value="2" style="whiteSpace=wrap;html=1;aspect=fixed;rounded=1;fillColor=#d80073;fontColor=#ffffff;strokeColor=#A50040;fontSize=31;" parent="1" vertex="1">
                    <mxGeometry x="280" y="160" width="80" height="80" as="geometry"/>
                </mxCell>
                <mxCell id="75" value="2" style="whiteSpace=wrap;html=1;aspect=fixed;rounded=1;fillColor=#d80073;fontColor=#ffffff;strokeColor=#A50040;fontSize=31;" parent="1" vertex="1">
                    <mxGeometry x="400" y="160" width="80" height="80" as="geometry"/>
                </mxCell>
                <mxCell id="76" value="2" style="whiteSpace=wrap;html=1;aspect=fixed;rounded=1;fillColor=#d80073;fontColor=#ffffff;strokeColor=#A50040;fontSize=31;" parent="1" vertex="1">
                    <mxGeometry x="520" y="160" width="80" height="80" as="geometry"/>
                </mxCell>
            </root>
        </mxGraphModel>
    </diagram>
</mxfile>